<svg width="64" height="64" viewBox="0 0 64 64" fill="none" xmlns="http://www.w3.org/2000/svg">
<rect width="64" height="64" fill="black"/>
<path d="M51 33.5109C51 34.8441 50.908 36.0439 50.7241 37.1104L22.7931 37.1104C23.023 39.7768 23.9885 41.8654 25.6897 43.3763C27.3908 44.8872 29.4828 45.6427 31.9655 45.6427C35.5517 45.6427 38.1034 44.154 39.6207 41.1766L50.0345 41.1766C48.931 44.7317 46.8161 47.6646 43.6897 49.9754C40.5632 52.2418 36.7241 53.375 32.1724 53.375C28.4943 53.375 25.1839 52.5973 22.2414 51.042C19.3448 49.4422 17.069 47.198 15.4138 44.3095C13.8046 41.421 13 38.0881 13 34.3108C13 30.4891 13.8046 27.134 15.4138 24.2454C17.023 21.3569 19.2759 19.135 22.1724 17.5796C25.069 16.0243 28.4023 15.2466 32.1724 15.2466C35.8046 15.2466 39.046 16.0021 41.8965 17.513C44.7931 19.0239 47.023 21.1792 48.5862 23.9788C50.1954 26.734 51 29.9114 51 33.5109ZM41 30.8446C40.954 28.4449 40.0575 26.534 38.3103 25.112C36.5632 23.6455 34.4253 22.9123 31.8965 22.9123C29.5057 22.9123 27.4828 23.6233 25.8276 25.0453C24.2184 26.4229 23.2299 28.356 22.8621 30.8446L41 30.8446Z" fill="#14B8A6"/>
<path d="M51 27.2643C51 28.5975 50.908 29.7973 50.7241 30.8638L22.7931 30.8638C23.023 33.5301 23.9885 35.6188 25.6897 37.1297C27.3908 38.6406 29.4828 39.396 31.9655 39.396C35.5517 39.396 38.069 40.4774 39.5862 37.5H50C49.3208 39.6882 48.2929 39.4709 46.8473 41C45.9443 41.9552 44.8917 42.8403 43.6897 43.7288C40.5632 45.9952 36.7241 47.1284 32.1724 47.1284C28.4943 47.1284 25.1839 46.3507 22.2414 44.7953C19.3448 43.1956 17.069 40.9514 15.4138 38.0629C13.8046 35.1744 13 31.8415 13 28.0642C13 24.2425 13.8046 20.8873 15.4138 17.9988C17.023 15.1103 19.2759 12.8884 22.1724 11.333C25.069 9.77768 28.4023 9 32.1724 9C35.8046 9 39.046 9.75546 41.8966 11.2664C44.7931 12.7773 47.023 14.9326 48.5862 17.7322C50.1954 20.4874 51 23.6648 51 27.2643ZM41 24.598C40.954 22.1983 40.0575 20.2874 38.3103 18.8654C36.5632 17.3989 34.4253 16.6657 31.8966 16.6657C29.5057 16.6657 27.4828 17.3767 25.8276 18.7987C24.2184 20.1763 23.2299 22.1094 22.8621 24.598L41 24.598Z" fill="black"/>
</svg>
